<svg id="Layer_1" data-name="Layer 1" xmlns="http://www.w3.org/2000/svg" viewBox="0 0 454.12 302.18"><defs><style>.cls-1{fill:none;stroke:#1f222d;stroke-miterlimit:10;stroke-width:0.25px;opacity:0.19;}.cls-2{fill:#dda19f;}.cls-3{fill:#1f222d;}</style></defs><title>BGb</title><polygon class="cls-1" points="53.55 27.7 40.2 0.13 13.49 0.13 0.14 27.7 13.49 55.28 14.36 55.28 14.57 0.59 14.36 55.28 40.2 55.28 53.55 27.7"/><polygon class="cls-1" points="94.25 55.28 67.55 55.28 54.2 27.7 67.55 0.13 94.25 0.13 107.61 27.7 94.25 55.28"/><polygon class="cls-1" points="148.31 55.28 121.61 55.28 108.25 27.7 121.61 0.13 148.31 0.13 161.66 27.7 148.31 55.28"/><polygon class="cls-1" points="202.37 55.28 175.66 55.28 162.31 27.7 175.66 0.13 202.37 0.13 215.72 27.7 202.37 55.28"/><polygon class="cls-1" points="256.43 55.28 229.72 55.28 216.37 27.7 229.72 0.13 256.43 0.13 269.78 27.7 256.43 55.28"/><polygon class="cls-1" points="310.48 55.28 283.78 55.28 270.42 27.7 283.78 0.13 310.48 0.13 323.83 27.7 310.48 55.28"/><polygon class="cls-1" points="364.54 55.28 337.83 55.28 324.48 27.7 337.83 0.13 364.54 0.13 377.89 27.7 364.54 55.28"/><polygon class="cls-1" points="418.6 55.28 391.89 55.28 378.54 27.7 391.89 0.13 418.6 0.13 431.95 27.7 418.6 55.28"/><polygon class="cls-1" points="445.95 0.13 432.59 27.7 445.95 55.28 454 55.28 454 0.13 445.95 0.13"/><polygon class="cls-1" points="67.33 110.88 40.62 110.88 27.27 83.31 40.62 55.73 67.33 55.73 80.68 83.31 67.33 110.88"/><polygon class="cls-1" points="121.39 110.88 94.68 110.88 81.33 83.31 94.68 55.73 121.39 55.73 134.74 83.31 121.39 110.88"/><polygon class="cls-1" points="175.44 110.88 148.74 110.88 135.38 83.31 148.74 55.73 175.44 55.73 188.79 83.31 175.44 110.88"/><polygon class="cls-1" points="229.5 110.88 202.79 110.88 189.44 83.31 202.79 55.73 229.5 55.73 242.85 83.31 229.5 110.88"/><polygon class="cls-1" points="283.56 110.88 256.85 110.88 243.5 83.31 256.85 55.73 283.56 55.73 296.91 83.31 283.56 110.88"/><polygon class="cls-1" points="337.61 110.88 310.91 110.88 297.55 83.31 310.91 55.73 337.61 55.73 350.96 83.31 337.61 110.88"/><polygon class="cls-1" points="391.67 110.88 364.96 110.88 351.61 83.31 364.96 55.73 391.67 55.73 405.02 83.31 391.67 110.88"/><polygon class="cls-1" points="445.73 55.73 419.02 55.73 405.67 83.31 419.02 110.88 445.73 110.88 454 93.8 454 72.82 445.73 55.73"/><polygon class="cls-1" points="14.35 57.95 14.15 109.07 26.62 83.31 14.35 57.95"/><polygon class="cls-1" points="53.55 137.9 40.2 110.32 14.14 110.32 13.93 165.47 40.2 165.47 53.55 137.9"/><polygon class="cls-1" points="94.25 165.47 67.55 165.47 54.2 137.9 67.55 110.32 94.25 110.32 107.61 137.9 94.25 165.47"/><polygon class="cls-1" points="148.31 165.47 121.61 165.47 108.25 137.9 121.61 110.32 148.31 110.32 161.66 137.9 148.31 165.47"/><polygon class="cls-1" points="202.37 165.47 175.66 165.47 162.31 137.9 175.66 110.32 202.37 110.32 215.72 137.9 202.37 165.47"/><polygon class="cls-1" points="256.43 165.47 229.72 165.47 216.37 137.9 229.72 110.32 256.43 110.32 269.78 137.9 256.43 165.47"/><polygon class="cls-1" points="310.48 165.47 283.78 165.47 270.42 137.9 283.78 110.32 310.48 110.32 323.83 137.9 310.48 165.47"/><polygon class="cls-1" points="364.54 165.47 337.83 165.47 324.48 137.9 337.83 110.32 364.54 110.32 377.89 137.9 364.54 165.47"/><polygon class="cls-1" points="418.6 165.47 391.89 165.47 378.54 137.9 391.89 110.32 418.6 110.32 431.95 137.9 418.6 165.47"/><polygon class="cls-1" points="445.95 110.32 432.59 137.9 445.95 165.47 454 165.47 454 110.32 445.95 110.32"/><polygon class="cls-1" points="67.33 221.08 40.62 221.08 27.27 193.5 40.62 165.93 67.33 165.93 80.68 193.5 67.33 221.08"/><polygon class="cls-1" points="121.39 221.08 94.68 221.08 81.33 193.5 94.68 165.93 121.39 165.93 134.74 193.5 121.39 221.08"/><polygon class="cls-1" points="175.44 221.08 148.74 221.08 135.38 193.5 148.74 165.93 175.44 165.93 188.79 193.5 175.44 221.08"/><polygon class="cls-1" points="229.5 221.08 202.79 221.08 189.44 193.5 202.79 165.93 229.5 165.93 242.85 193.5 229.5 221.08"/><polygon class="cls-1" points="283.56 221.08 256.85 221.08 243.5 193.5 256.85 165.93 283.56 165.93 296.91 193.5 283.56 221.08"/><polygon class="cls-1" points="337.61 221.08 310.91 221.08 297.55 193.5 310.91 165.93 337.61 165.93 350.96 193.5 337.61 221.08"/><polygon class="cls-1" points="391.67 221.08 364.96 221.08 351.61 193.5 364.96 165.93 391.67 165.93 405.02 193.5 391.67 221.08"/><polygon class="cls-1" points="445.73 165.93 419.02 165.93 405.67 193.5 419.02 221.08 445.73 221.08 454 204 454 183.01 445.73 165.93"/><polygon class="cls-1" points="13.92 167.27 13.72 220.16 26.62 193.5 13.92 167.27"/><polygon class="cls-1" points="53.55 248.09 40.2 220.51 13.72 220.51 13.5 275.67 40.2 275.67 53.55 248.09"/><polygon class="cls-1" points="94.25 275.67 67.55 275.67 54.2 248.09 67.55 220.51 94.25 220.51 107.61 248.09 94.25 275.67"/><polygon class="cls-1" points="148.31 275.67 121.61 275.67 108.25 248.09 121.61 220.51 148.31 220.51 161.66 248.09 148.31 275.67"/><polygon class="cls-1" points="202.37 275.67 175.66 275.67 162.31 248.09 175.66 220.51 202.37 220.51 215.72 248.09 202.37 275.67"/><polygon class="cls-1" points="256.43 275.67 229.72 275.67 216.37 248.09 229.72 220.51 256.43 220.51 269.78 248.09 256.43 275.67"/><polygon class="cls-1" points="310.48 275.67 283.78 275.67 270.42 248.09 283.78 220.51 310.48 220.51 323.83 248.09 310.48 275.67"/><polygon class="cls-1" points="364.54 275.67 337.83 275.67 324.48 248.09 337.83 220.51 364.54 220.51 377.89 248.09 364.54 275.67"/><polygon class="cls-1" points="418.6 275.67 391.89 275.67 378.54 248.09 391.89 220.51 418.6 220.51 431.95 248.09 418.6 275.67"/><polygon class="cls-1" points="445.95 220.51 432.59 248.09 445.95 275.67 454 275.67 454 220.51 445.95 220.51"/><polygon class="cls-1" points="67.33 276.12 40.62 276.12 28.72 300.7 79.19 300.61 67.33 276.12"/><polygon class="cls-1" points="121.39 276.12 94.68 276.12 82.82 300.61 133.2 300.52 121.39 276.12"/><polygon class="cls-1" points="175.44 276.12 148.74 276.12 136.92 300.52 187.21 300.43 175.44 276.12"/><polygon class="cls-1" points="229.5 276.12 202.79 276.12 191.02 300.43 241.23 300.34 229.5 276.12"/><polygon class="cls-1" points="283.56 276.12 256.85 276.12 245.12 300.34 295.24 300.25 283.56 276.12"/><polygon class="cls-1" points="337.61 276.12 310.91 276.12 299.23 300.25 349.25 300.17 337.61 276.12"/><polygon class="cls-1" points="391.67 276.12 364.96 276.12 353.32 300.16 403.27 300.07 391.67 276.12"/><polygon class="cls-1" points="454 293.21 445.73 276.12 419.02 276.12 407.43 300.07 454 299.99 454 293.21"/><polygon class="cls-2" points="454 220.05 414.44 159.47 242.16 161 240.82 300.35 454 299.99 454 220.05"/><polygon class="cls-2" points="240.82 300.35 240.8 302.18 454 300.84 454 299.99 240.82 300.35"/><polygon class="cls-3" points="13.13 299.82 13.41 299.82 13.6 251.63 13.13 299.82"/><polygon class="cls-3" points="221.06 103.72 12.22 105.55 10.78 252.59 10.59 301.09 329.28 300.18 221.06 103.72"/></svg>