<svg id="Layer_1" data-name="Layer 1" xmlns="http://www.w3.org/2000/svg" viewBox="0 0 405.35 225.25"><defs><style>.cls-1{fill:#1f222d;}.cls-2,.cls-4{fill:none;stroke:#dda19f;stroke-miterlimit:10;}.cls-2{stroke-width:0.25px;opacity:0.19;}.cls-3{fill:#dda19f;}</style></defs><title>CardBG</title><rect class="cls-1" x="12.39" y="0.53" width="392.21" height="224.12"/><polygon class="cls-2" points="47.82 20.77 35.9 0.13 12.06 0.13 0.14 20.77 12.06 41.41 12.83 41.41 13.02 0.47 12.83 41.41 35.9 41.41 47.82 20.77"/><polygon class="cls-2" points="84.14 41.41 60.31 41.41 48.39 20.77 60.31 0.13 84.14 0.13 96.06 20.77 84.14 41.41"/><polygon class="cls-2" points="132.39 41.41 108.56 41.41 96.64 20.77 108.56 0.13 132.39 0.13 144.31 20.77 132.39 41.41"/><polygon class="cls-2" points="180.64 41.41 156.81 41.41 144.89 20.77 156.81 0.13 180.64 0.13 192.56 20.77 180.64 41.41"/><polygon class="cls-2" points="228.89 41.41 205.05 41.41 193.13 20.77 205.05 0.13 228.89 0.13 240.81 20.77 228.89 41.41"/><polygon class="cls-2" points="277.14 41.41 253.3 41.41 241.38 20.77 253.3 0.13 277.14 0.13 289.05 20.77 277.14 41.41"/><polygon class="cls-2" points="325.38 41.41 301.55 41.41 289.63 20.77 301.55 0.13 325.38 0.13 337.3 20.77 325.38 41.41"/><polygon class="cls-2" points="373.63 41.41 349.8 41.41 337.88 20.77 349.8 0.13 373.63 0.13 385.55 20.77 373.63 41.41"/><polygon class="cls-2" points="398.04 0.13 386.13 20.77 398.04 41.41 405.23 41.41 405.23 0.13 398.04 0.13"/><polygon class="cls-2" points="60.11 83.03 36.28 83.03 24.36 62.39 36.28 41.75 60.11 41.75 72.03 62.39 60.11 83.03"/><polygon class="cls-2" points="108.36 83.03 84.53 83.03 72.61 62.39 84.53 41.75 108.36 41.75 120.28 62.39 108.36 83.03"/><polygon class="cls-2" points="156.61 83.03 132.77 83.03 120.85 62.39 132.77 41.75 156.61 41.75 168.53 62.39 156.61 83.03"/><polygon class="cls-2" points="204.86 83.03 181.02 83.03 169.1 62.39 181.02 41.75 204.86 41.75 216.77 62.39 204.86 83.03"/><polygon class="cls-2" points="253.1 83.03 229.27 83.03 217.35 62.39 229.27 41.75 253.1 41.75 265.02 62.39 253.1 83.03"/><polygon class="cls-2" points="301.35 83.03 277.51 83.03 265.6 62.39 277.51 41.75 301.35 41.75 313.27 62.39 301.35 83.03"/><polygon class="cls-2" points="349.6 83.03 325.76 83.03 313.85 62.39 325.76 41.75 349.6 41.75 361.52 62.39 349.6 83.03"/><polygon class="cls-2" points="397.85 41.75 374.01 41.75 362.09 62.39 374.01 83.03 397.85 83.03 405.23 70.25 405.23 54.54 397.85 41.75"/><polygon class="cls-2" points="12.82 43.41 12.65 81.68 23.78 62.39 12.82 43.41"/><polygon class="cls-2" points="47.82 103.25 35.9 82.61 12.64 82.61 12.45 123.9 35.9 123.9 47.82 103.25"/><polygon class="cls-2" points="84.14 123.9 60.31 123.9 48.39 103.25 60.31 82.61 84.14 82.61 96.06 103.25 84.14 123.9"/><polygon class="cls-2" points="132.39 123.9 108.56 123.9 96.64 103.25 108.56 82.61 132.39 82.61 144.31 103.25 132.39 123.9"/><polygon class="cls-2" points="180.64 123.9 156.81 123.9 144.89 103.25 156.81 82.61 180.64 82.61 192.56 103.25 180.64 123.9"/><polygon class="cls-2" points="228.89 123.9 205.05 123.9 193.13 103.25 205.05 82.61 228.89 82.61 240.81 103.25 228.89 123.9"/><polygon class="cls-2" points="277.14 123.9 253.3 123.9 241.38 103.25 253.3 82.61 277.14 82.61 289.05 103.25 277.14 123.9"/><polygon class="cls-2" points="325.38 123.9 301.55 123.9 289.63 103.25 301.55 82.61 325.38 82.61 337.3 103.25 325.38 123.9"/><polygon class="cls-2" points="373.63 123.9 349.8 123.9 337.88 103.25 349.8 82.61 373.63 82.61 385.55 103.25 373.63 123.9"/><polygon class="cls-2" points="398.04 82.61 386.13 103.25 398.04 123.9 405.23 123.9 405.23 82.61 398.04 82.61"/><polygon class="cls-2" points="60.11 165.52 36.28 165.52 24.36 144.88 36.28 124.24 60.11 124.24 72.03 144.88 60.11 165.52"/><polygon class="cls-2" points="108.36 165.52 84.53 165.52 72.61 144.88 84.53 124.24 108.36 124.24 120.28 144.88 108.36 165.52"/><polygon class="cls-2" points="156.61 165.52 132.77 165.52 120.85 144.88 132.77 124.24 156.61 124.24 168.53 144.88 156.61 165.52"/><polygon class="cls-2" points="204.86 165.52 181.02 165.52 169.1 144.88 181.02 124.24 204.86 124.24 216.77 144.88 204.86 165.52"/><polygon class="cls-2" points="253.1 165.52 229.27 165.52 217.35 144.88 229.27 124.24 253.1 124.24 265.02 144.88 253.1 165.52"/><polygon class="cls-2" points="301.35 165.52 277.51 165.52 265.6 144.88 277.51 124.24 301.35 124.24 313.27 144.88 301.35 165.52"/><polygon class="cls-2" points="349.6 165.52 325.76 165.52 313.85 144.88 325.76 124.24 349.6 124.24 361.52 144.88 349.6 165.52"/><polygon class="cls-2" points="397.85 124.24 374.01 124.24 362.09 144.88 374.01 165.52 397.85 165.52 405.23 152.74 405.23 137.03 397.85 124.24"/><polygon class="cls-2" points="12.45 125.25 12.26 164.83 23.78 144.88 12.45 125.25"/><polygon class="cls-2" points="47.82 185.74 35.9 165.1 12.26 165.1 12.07 206.38 35.9 206.38 47.82 185.74"/><polygon class="cls-2" points="84.14 206.38 60.31 206.38 48.39 185.74 60.31 165.1 84.14 165.1 96.06 185.74 84.14 206.38"/><polygon class="cls-2" points="132.39 206.38 108.56 206.38 96.64 185.74 108.56 165.1 132.39 165.1 144.31 185.74 132.39 206.38"/><polygon class="cls-2" points="180.64 206.38 156.81 206.38 144.89 185.74 156.81 165.1 180.64 165.1 192.56 185.74 180.64 206.38"/><polygon class="cls-2" points="228.89 206.38 205.05 206.38 193.13 185.74 205.05 165.1 228.89 165.1 240.81 185.74 228.89 206.38"/><polygon class="cls-2" points="277.14 206.38 253.3 206.38 241.38 185.74 253.3 165.1 277.14 165.1 289.05 185.74 277.14 206.38"/><polygon class="cls-2" points="325.38 206.38 301.55 206.38 289.63 185.74 301.55 165.1 325.38 165.1 337.3 185.74 325.38 206.38"/><polygon class="cls-2" points="373.63 206.38 349.8 206.38 337.88 185.74 349.8 165.1 373.63 165.1 385.55 185.74 373.63 206.38"/><polygon class="cls-2" points="398.04 165.1 386.13 185.74 398.04 206.38 405.23 206.38 405.23 165.1 398.04 165.1"/><polygon class="cls-2" points="60.11 206.73 36.28 206.73 25.66 225.12 70.7 225.06 60.11 206.73"/><polygon class="cls-2" points="108.36 206.73 84.53 206.73 73.94 225.05 118.91 224.99 108.36 206.73"/><polygon class="cls-2" points="156.61 206.73 132.77 206.73 122.23 224.99 167.12 224.93 156.61 206.73"/><polygon class="cls-2" points="204.86 206.73 181.02 206.73 170.52 224.92 215.32 224.86 204.86 206.73"/><polygon class="cls-2" points="253.1 206.73 229.27 206.73 218.8 224.85 263.53 224.79 253.1 206.73"/><polygon class="cls-2" points="301.35 206.73 277.51 206.73 267.09 224.78 311.74 224.72 301.35 206.73"/><polygon class="cls-2" points="349.6 206.73 325.76 206.73 315.38 224.72 359.95 224.66 349.6 206.73"/><polygon class="cls-2" points="405.23 219.51 397.85 206.73 374.01 206.73 363.66 224.65 405.23 224.59 405.23 219.51"/><path class="cls-3" d="M200.7,157.57V82.29H186.81V78.08c16.2,0,23.92-22.08,23.92-39.53h3.08V76H238v6.31H213.81v75.28c0,14.08,3.55,18.92,9.57,18.92,8.48,0,11.42-10.51,11.42-32.38H239c0,23.55-3.55,39.11-19.9,39.11C211.5,183.22,200.7,178.8,200.7,157.57Z" transform="translate(12.31 2.15)"/><path class="cls-3" d="M171.12,55m13.12,6.3v75.28c0,21.24-10.8,25.66-18.36,25.66-16.36,0-19.91-15.56-19.91-39.12h4.17c0,21.87,2.93,32.39,11.42,32.39,6,0,9.56-4.84,9.56-18.93v-119h3.09c0,11.48,3.34,25,10.23,32.84Z" transform="translate(12.31 2.15)"/><polyline class="cls-4" points="196.75 25.68 208.43 17.99 280.59 65.51 280.59 160.57 208.43 208.09 136.27 160.57 136.27 65.51 173.94 40.71"/><path class="cls-3" d="M184.44,23.53" transform="translate(12.31 2.15)"/><path class="cls-3" d="M161.63,38.55" transform="translate(12.31 2.15)"/><line class="cls-4" x1="25.66" y1="17.99" x2="25.66" y2="215.69"/><line class="cls-4" x1="391.4" y1="17.99" x2="391.4" y2="215.69"/><line class="cls-4" x1="25.66" y1="215.69" x2="391.4" y2="215.69"/><line class="cls-4" x1="25.66" y1="17.99" x2="136.27" y2="17.99"/><line class="cls-4" x1="391.4" y1="17.99" x2="280.59" y2="17.99"/></svg>