<svg id="Layer_1" data-name="Layer 1" xmlns="http://www.w3.org/2000/svg" viewBox="0 0 399.99 223.24"><defs><style>.cls-1{fill:none;stroke:#1f222d;stroke-miterlimit:10;stroke-width:0.25px;opacity:0.19;}.cls-2{fill:#dda19f;}.cls-3{fill:#1f222d;}.cls-4{font-size:12.29px;fill:#fff;font-family:Raleway-Bold, Raleway;font-weight:700;}.cls-5{letter-spacing:-0.07em;}.cls-6{letter-spacing:-0.11em;}.cls-7{letter-spacing:0em;}.cls-8{letter-spacing:0em;}.cls-9{letter-spacing:-0.01em;}.cls-10{letter-spacing:-0.11em;}.cls-11{letter-spacing:-0.11em;}.cls-12{letter-spacing:-0.01em;}.cls-13{letter-spacing:-0.11em;}</style></defs><title>CardBGb</title><polygon class="cls-1" points="47.19 20.49 35.42 0.13 11.9 0.13 0.14 20.49 11.9 40.86 12.67 40.86 12.85 0.47 12.67 40.86 35.42 40.86 47.19 20.49"/><polygon class="cls-1" points="83.03 40.86 59.51 40.86 47.75 20.49 59.51 0.13 83.03 0.13 94.79 20.49 83.03 40.86"/><polygon class="cls-1" points="130.64 40.86 107.12 40.86 95.36 20.49 107.12 0.13 130.64 0.13 142.4 20.49 130.64 40.86"/><polygon class="cls-1" points="178.25 40.86 154.73 40.86 142.97 20.49 154.73 0.13 178.25 0.13 190.01 20.49 178.25 40.86"/><polygon class="cls-1" points="225.86 40.86 202.34 40.86 190.58 20.49 202.34 0.13 225.86 0.13 237.62 20.49 225.86 40.86"/><polygon class="cls-1" points="273.47 40.86 249.95 40.86 238.19 20.49 249.95 0.13 273.47 0.13 285.23 20.49 273.47 40.86"/><polygon class="cls-1" points="321.08 40.86 297.56 40.86 285.8 20.49 297.56 0.13 321.08 0.13 332.84 20.49 321.08 40.86"/><polygon class="cls-1" points="368.69 40.86 345.17 40.86 333.41 20.49 345.17 0.13 368.69 0.13 380.45 20.49 368.69 40.86"/><polygon class="cls-1" points="392.78 0.13 381.02 20.49 392.78 40.86 399.87 40.86 399.87 0.13 392.78 0.13"/><polygon class="cls-1" points="59.32 81.94 35.8 81.94 24.04 61.57 35.8 41.2 59.32 41.2 71.08 61.57 59.32 81.94"/><polygon class="cls-1" points="106.93 81.94 83.41 81.94 71.65 61.57 83.41 41.2 106.93 41.2 118.69 61.57 106.93 81.94"/><polygon class="cls-1" points="154.54 81.94 131.02 81.94 119.26 61.57 131.02 41.2 154.54 41.2 166.3 61.57 154.54 81.94"/><polygon class="cls-1" points="202.15 81.94 178.63 81.94 166.87 61.57 178.63 41.2 202.15 41.2 213.91 61.57 202.15 81.94"/><polygon class="cls-1" points="249.75 81.94 226.24 81.94 214.47 61.57 226.24 41.2 249.75 41.2 261.51 61.57 249.75 81.94"/><polygon class="cls-1" points="297.36 81.94 273.84 81.94 262.08 61.57 273.84 41.2 297.36 41.2 309.12 61.57 297.36 81.94"/><polygon class="cls-1" points="344.97 81.94 321.45 81.94 309.69 61.57 321.45 41.2 344.97 41.2 356.73 61.57 344.97 81.94"/><polygon class="cls-1" points="392.58 41.2 369.06 41.2 357.3 61.57 369.06 81.94 392.58 81.94 399.87 69.32 399.87 53.82 392.58 41.2"/><polygon class="cls-1" points="12.66 42.84 12.48 80.6 23.47 61.57 12.66 42.84"/><polygon class="cls-1" points="47.19 101.89 35.42 81.52 12.48 81.52 12.29 122.26 35.42 122.26 47.19 101.89"/><polygon class="cls-1" points="83.03 122.26 59.51 122.26 47.75 101.89 59.51 81.52 83.03 81.52 94.79 101.89 83.03 122.26"/><polygon class="cls-1" points="130.64 122.26 107.12 122.26 95.36 101.89 107.12 81.52 130.64 81.52 142.4 101.89 130.64 122.26"/><polygon class="cls-1" points="178.25 122.26 154.73 122.26 142.97 101.89 154.73 81.52 178.25 81.52 190.01 101.89 178.25 122.26"/><polygon class="cls-1" points="225.86 122.26 202.34 122.26 190.58 101.89 202.34 81.52 225.86 81.52 237.62 101.89 225.86 122.26"/><polygon class="cls-1" points="273.47 122.26 249.95 122.26 238.19 101.89 249.95 81.52 273.47 81.52 285.23 101.89 273.47 122.26"/><polygon class="cls-1" points="321.08 122.26 297.56 122.26 285.8 101.89 297.56 81.52 321.08 81.52 332.84 101.89 321.08 122.26"/><polygon class="cls-1" points="368.69 122.26 345.17 122.26 333.41 101.89 345.17 81.52 368.69 81.52 380.45 101.89 368.69 122.26"/><polygon class="cls-1" points="392.78 81.52 381.02 101.89 392.78 122.26 399.87 122.26 399.87 81.52 392.78 81.52"/><polygon class="cls-1" points="59.32 163.33 35.8 163.33 24.04 142.97 35.8 122.6 59.32 122.6 71.08 142.97 59.32 163.33"/><polygon class="cls-1" points="106.93 163.33 83.41 163.33 71.65 142.97 83.41 122.6 106.93 122.6 118.69 142.97 106.93 163.33"/><polygon class="cls-1" points="154.54 163.33 131.02 163.33 119.26 142.97 131.02 122.6 154.54 122.6 166.3 142.97 154.54 163.33"/><polygon class="cls-1" points="202.15 163.33 178.63 163.33 166.87 142.97 178.63 122.6 202.15 122.6 213.91 142.97 202.15 163.33"/><polygon class="cls-1" points="249.75 163.33 226.24 163.33 214.47 142.97 226.24 122.6 249.75 122.6 261.51 142.97 249.75 163.33"/><polygon class="cls-1" points="297.36 163.33 273.84 163.33 262.08 142.97 273.84 122.6 297.36 122.6 309.12 142.97 297.36 163.33"/><polygon class="cls-1" points="344.97 163.33 321.45 163.33 309.69 142.97 321.45 122.6 344.97 122.6 356.73 142.97 344.97 163.33"/><polygon class="cls-1" points="392.58 122.6 369.06 122.6 357.3 142.97 369.06 163.33 392.58 163.33 399.87 150.72 399.87 135.21 392.58 122.6"/><polygon class="cls-1" points="12.28 123.59 12.1 162.65 23.47 142.97 12.28 123.59"/><polygon class="cls-1" points="47.19 183.29 35.42 162.92 12.1 162.92 11.91 203.66 35.42 203.66 47.19 183.29"/><polygon class="cls-1" points="83.03 203.66 59.51 203.66 47.75 183.29 59.51 162.92 83.03 162.92 94.79 183.29 83.03 203.66"/><polygon class="cls-1" points="130.64 203.66 107.12 203.66 95.36 183.29 107.12 162.92 130.64 162.92 142.4 183.29 130.64 203.66"/><polygon class="cls-1" points="178.25 203.66 154.73 203.66 142.97 183.29 154.73 162.92 178.25 162.92 190.01 183.29 178.25 203.66"/><polygon class="cls-1" points="225.86 203.66 202.34 203.66 190.58 183.29 202.34 162.92 225.86 162.92 237.62 183.29 225.86 203.66"/><polygon class="cls-1" points="273.47 203.66 249.95 203.66 238.19 183.29 249.95 162.92 273.47 162.92 285.23 183.29 273.47 203.66"/><polygon class="cls-1" points="321.08 203.66 297.56 203.66 285.8 183.29 297.56 162.92 321.08 162.92 332.84 183.29 321.08 203.66"/><polygon class="cls-1" points="368.69 203.66 345.17 203.66 333.41 183.29 345.17 162.92 368.69 162.92 380.45 183.29 368.69 203.66"/><polygon class="cls-1" points="392.78 162.92 381.02 183.29 392.78 203.66 399.87 203.66 399.87 162.92 392.78 162.92"/><polygon class="cls-1" points="59.32 203.99 35.8 203.99 25.32 222.14 69.76 222.08 59.32 203.99"/><polygon class="cls-1" points="106.93 203.99 83.41 203.99 72.97 222.08 117.33 222.02 106.93 203.99"/><polygon class="cls-1" points="154.54 203.99 131.02 203.99 120.61 222.01 164.91 221.95 154.54 203.99"/><polygon class="cls-1" points="202.15 203.99 178.63 203.99 168.26 221.94 212.48 221.88 202.15 203.99"/><polygon class="cls-1" points="249.75 203.99 226.24 203.99 215.91 221.88 260.05 221.82 249.75 203.99"/><polygon class="cls-1" points="297.36 203.99 273.84 203.99 263.56 221.81 307.62 221.75 297.36 203.99"/><polygon class="cls-1" points="344.97 203.99 321.45 203.99 311.2 221.75 355.19 221.68 344.97 203.99"/><polygon class="cls-1" points="399.87 216.61 392.58 203.99 369.06 203.99 358.85 221.68 399.87 221.62 399.87 216.61"/><polygon class="cls-2" points="399.87 162.57 365.03 117.82 213.29 118.96 212.12 221.88 399.87 221.62 399.87 162.57"/><polygon class="cls-2" points="212.12 221.88 212.1 223.24 399.87 222.25 399.87 221.62 212.12 221.88"/><polygon class="cls-3" points="11.58 221.5 11.83 221.5 12 185.9 11.58 221.5"/><polygon class="cls-3" points="194.71 76.64 10.79 77.99 9.52 186.61 9.35 222.43 290.03 221.76 194.71 76.64"/><text class="cls-4" transform="translate(41.38 126.81)">JL<tspan class="cls-5" x="13.21" y="0">.</tspan><tspan class="cls-6" x="15.09" y="0">T</tspan><tspan class="cls-7" x="21.29" y="0">odman@gmail.</tspan><tspan class="cls-8" x="109.03" y="0">c</tspan><tspan x="115.89" y="0">om</tspan></text><text class="cls-4" transform="translate(41.38 154.48)"><tspan class="cls-9">J</tspan><tspan class="cls-7" x="5.95" y="0">a</tspan><tspan class="cls-10" x="13" y="0">s</tspan><tspan class="cls-11" x="17.79" y="0">T</tspan><tspan x="23.99" y="0">odman.</tspan><tspan class="cls-8" x="68.04" y="0">c</tspan><tspan x="74.91" y="0">om</tspan></text><text class="cls-4" transform="translate(41.38 182.53)">@<tspan class="cls-12" x="10.38" y="0">J</tspan><tspan x="16.33" y="0">a</tspan><tspan class="cls-13" x="23.38" y="0">s</tspan><tspan class="cls-6" x="28.17" y="0">T</tspan><tspan x="34.38" y="0">odman on:</tspan></text></svg>