<svg id="Layer_1" data-name="Layer 1" xmlns="http://www.w3.org/2000/svg" viewBox="0 0 93.73 123.34"><defs><style>.cls-1{fill:#dda19f;}.cls-2{fill:none;stroke:#dda19f;stroke-miterlimit:10;}</style></defs><title>Logo</title><path class="cls-1" d="M128.66,102.61V54.25h-8.92V51.54c10.41,0,15.37-14.18,15.37-25.4h2v24h15.56v4.06H137.09v48.36c0,9.06,2.28,12.16,6.14,12.16,5.46,0,7.34-6.75,7.34-20.8h2.68c0,15.13-2.28,25.13-12.79,25.13C135.6,119.1,128.66,116.26,128.66,102.61Z" transform="translate(-78.85 -10.95)"/><path class="cls-1" d="M109.66,36.74m8.42,4V89.16c0,13.64-6.94,16.48-11.79,16.48-10.51,0-12.79-10-12.79-25.13h2.68c0,14,1.88,20.81,7.33,20.81,3.87,0,6.15-3.11,6.15-12.16V12.69h2c0,7.37,2.14,16,6.58,21.1Z" transform="translate(-78.85 -10.95)"/><polyline class="cls-2" points="39.36 5.54 46.87 0.6 93.23 31.14 93.23 92.21 46.87 122.74 0.5 92.21 0.5 31.14 24.7 15.2"/></svg>