<svg id="Layer_1" data-name="Layer 1" xmlns="http://www.w3.org/2000/svg" viewBox="0 0 412.91 220.25"><defs><style>.cls-1{fill:#1f222d;}.cls-2,.cls-4{fill:none;stroke:#dda19f;stroke-miterlimit:10;}.cls-2{stroke-width:0.25px;opacity:0.19;}.cls-3{fill:#dda19f;}</style></defs><title>LogoBG</title><rect class="cls-1" x="12.62" y="0.52" width="399.52" height="219.14"/><polygon class="cls-2" points="48.71 20.31 36.57 0.13 12.29 0.13 0.15 20.31 12.29 40.49 13.07 40.49 13.27 0.46 13.07 40.49 36.57 40.49 48.71 20.31"/><polygon class="cls-2" points="85.71 40.49 61.43 40.49 49.29 20.31 61.43 0.13 85.71 0.13 97.85 20.31 85.71 40.49"/><polygon class="cls-2" points="134.86 40.49 110.58 40.49 98.44 20.31 110.58 0.13 134.86 0.13 147 20.31 134.86 40.49"/><polygon class="cls-2" points="184.01 40.49 159.73 40.49 147.59 20.31 159.73 0.13 184.01 0.13 196.15 20.31 184.01 40.49"/><polygon class="cls-2" points="233.15 40.49 208.87 40.49 196.73 20.31 208.87 0.13 233.15 0.13 245.29 20.31 233.15 40.49"/><polygon class="cls-2" points="282.3 40.49 258.02 40.49 245.88 20.31 258.02 0.13 282.3 0.13 294.44 20.31 282.3 40.49"/><polygon class="cls-2" points="331.45 40.49 307.17 40.49 295.03 20.31 307.17 0.13 331.45 0.13 343.59 20.31 331.45 40.49"/><polygon class="cls-2" points="380.6 40.49 356.31 40.49 344.18 20.31 356.31 0.13 380.6 0.13 392.74 20.31 380.6 40.49"/><polygon class="cls-2" points="405.46 0.49 393.32 20.64 405.46 40.79 412.78 40.79 412.78 0.49 405.46 0.49"/><polygon class="cls-2" points="61.23 81.19 36.95 81.19 24.81 61.01 36.95 40.83 61.23 40.83 73.37 61.01 61.23 81.19"/><polygon class="cls-2" points="110.38 81.19 86.1 81.19 73.96 61.01 86.1 40.83 110.38 40.83 122.52 61.01 110.38 81.19"/><polygon class="cls-2" points="159.53 81.19 135.25 81.19 123.11 61.01 135.25 40.83 159.53 40.83 171.67 61.01 159.53 81.19"/><polygon class="cls-2" points="208.67 81.19 184.39 81.19 172.25 61.01 184.39 40.83 208.67 40.83 220.81 61.01 208.67 81.19"/><polygon class="cls-2" points="257.82 81.19 233.54 81.19 221.4 61.01 233.54 40.83 257.82 40.83 269.96 61.01 257.82 81.19"/><polygon class="cls-2" points="306.97 81.19 282.69 81.19 270.55 61.01 282.69 40.83 306.97 40.83 319.11 61.01 306.97 81.19"/><polygon class="cls-2" points="356.12 81.19 331.83 81.19 319.69 61.01 331.83 40.83 356.12 40.83 368.25 61.01 356.12 81.19"/><polygon class="cls-2" points="405.26 40.83 380.98 40.83 368.84 61.01 380.98 81.19 405.26 81.19 412.78 68.69 412.78 53.33 405.26 40.83"/><polygon class="cls-2" points="13.06 42.45 12.88 79.87 24.23 61.01 13.06 42.45"/><polygon class="cls-2" points="48.71 100.97 36.57 80.78 12.88 80.78 12.68 121.15 36.57 121.15 48.71 100.97"/><polygon class="cls-2" points="85.71 121.15 61.43 121.15 49.29 100.97 61.43 80.78 85.71 80.78 97.85 100.97 85.71 121.15"/><polygon class="cls-2" points="134.86 121.15 110.58 121.15 98.44 100.97 110.58 80.78 134.86 80.78 147 100.97 134.86 121.15"/><polygon class="cls-2" points="184.01 121.15 159.73 121.15 147.59 100.97 159.73 80.78 184.01 80.78 196.15 100.97 184.01 121.15"/><polygon class="cls-2" points="233.15 121.15 208.87 121.15 196.73 100.97 208.87 80.78 233.15 80.78 245.29 100.97 233.15 121.15"/><polygon class="cls-2" points="282.3 121.15 258.02 121.15 245.88 100.97 258.02 80.78 282.3 80.78 294.44 100.97 282.3 121.15"/><polygon class="cls-2" points="331.45 121.15 307.17 121.15 295.03 100.97 307.17 80.78 331.45 80.78 343.59 100.97 331.45 121.15"/><polygon class="cls-2" points="380.6 121.15 356.31 121.15 344.18 100.97 356.31 80.78 380.6 80.78 392.74 100.97 380.6 121.15"/><polygon class="cls-2" points="405.46 81.01 393.32 101.16 405.46 121.31 412.78 121.31 412.78 81.01 405.46 81.01"/><polygon class="cls-2" points="61.23 161.85 36.95 161.85 24.81 141.67 36.95 121.48 61.23 121.48 73.37 141.67 61.23 161.85"/><polygon class="cls-2" points="110.38 161.85 86.1 161.85 73.96 141.67 86.1 121.48 110.38 121.48 122.52 141.67 110.38 161.85"/><polygon class="cls-2" points="159.53 161.85 135.25 161.85 123.11 141.67 135.25 121.48 159.53 121.48 171.67 141.67 159.53 161.85"/><polygon class="cls-2" points="208.67 161.85 184.39 161.85 172.25 141.67 184.39 121.48 208.67 121.48 220.81 141.67 208.67 161.85"/><polygon class="cls-2" points="257.82 161.85 233.54 161.85 221.4 141.67 233.54 121.48 257.82 121.48 269.96 141.67 257.82 161.85"/><polygon class="cls-2" points="306.97 161.85 282.69 161.85 270.55 141.67 282.69 121.48 306.97 121.48 319.11 141.67 306.97 161.85"/><polygon class="cls-2" points="356.12 161.85 331.83 161.85 319.69 141.67 331.83 121.48 356.12 121.48 368.25 141.67 356.12 161.85"/><polygon class="cls-2" points="405.26 121.48 380.98 121.48 368.84 141.67 380.98 161.85 405.26 161.85 412.78 149.35 412.78 133.99 405.26 121.48"/><polygon class="cls-2" points="12.68 122.47 12.49 161.18 24.23 141.67 12.68 122.47"/><polygon class="cls-2" points="48.71 181.62 36.57 161.44 12.49 161.44 12.3 201.81 36.57 201.81 48.71 181.62"/><polygon class="cls-2" points="85.71 201.81 61.43 201.81 49.29 181.62 61.43 161.44 85.71 161.44 97.85 181.62 85.71 201.81"/><polygon class="cls-2" points="134.86 201.81 110.58 201.81 98.44 181.62 110.58 161.44 134.86 161.44 147 181.62 134.86 201.81"/><polygon class="cls-2" points="184.01 201.81 159.73 201.81 147.59 181.62 159.73 161.44 184.01 161.44 196.15 181.62 184.01 201.81"/><polygon class="cls-2" points="233.15 201.81 208.87 201.81 196.73 181.62 208.87 161.44 233.15 161.44 245.29 181.62 233.15 201.81"/><polygon class="cls-2" points="282.3 201.81 258.02 201.81 245.88 181.62 258.02 161.44 282.3 161.44 294.44 181.62 282.3 201.81"/><polygon class="cls-2" points="331.45 201.81 307.17 201.81 295.03 181.62 307.17 161.44 331.45 161.44 343.59 181.62 331.45 201.81"/><polygon class="cls-2" points="380.6 201.81 356.31 201.81 344.18 181.62 356.31 161.44 380.6 161.44 392.74 181.62 380.6 201.81"/><polygon class="cls-2" points="405.46 161.53 393.32 181.68 405.46 201.84 412.78 201.84 412.78 161.53 405.46 161.53"/><polygon class="cls-2" points="61.23 202.14 36.95 202.14 26.13 220.13 72.01 220.06 61.23 202.14"/><polygon class="cls-2" points="110.38 202.14 86.1 202.14 75.32 220.06 121.12 220 110.38 202.14"/><polygon class="cls-2" points="159.53 202.14 135.25 202.14 124.51 219.99 170.23 219.93 159.53 202.14"/><polygon class="cls-2" points="208.67 202.14 184.39 202.14 173.69 219.93 219.34 219.87 208.67 202.14"/><polygon class="cls-2" points="257.82 202.14 233.54 202.14 222.88 219.86 268.44 219.8 257.82 202.14"/><polygon class="cls-2" points="306.97 202.14 282.69 202.14 272.07 219.8 317.55 219.74 306.97 202.14"/><polygon class="cls-2" points="356.12 202.14 331.83 202.14 321.25 219.73 366.66 219.67 356.12 202.14"/><polygon class="cls-2" points="412.78 214.64 405.26 202.14 380.98 202.14 370.44 219.66 412.78 219.61 412.78 214.64"/><path class="cls-3" d="M204.47,156.05V82.44H190.32V78.33c16.5,0,24.36-21.59,24.36-38.65h3.15v36.6H242.5v6.16H217.83v73.61c0,13.78,3.61,18.51,9.74,18.51,8.64,0,11.63-10.28,11.63-31.67h4.24c0,23-3.61,38.24-20.27,38.24C215.47,181.13,204.47,176.82,204.47,156.05Z" transform="translate(12.51 0.13)"/><path class="cls-3" d="M174.34,55.8,187.7,62v73.6c0,20.77-11,25.09-18.7,25.09-16.66,0-20.28-15.22-20.28-38.25H153c0,21.39,3,31.67,11.63,31.67,6.13,0,9.75-4.73,9.75-18.51V19.2h3.14c0,11.23,3.4,24.41,10.43,32.12Z" transform="translate(12.51 0.13)"/><polyline class="cls-4" points="200.42 25.11 212.31 17.59 285.82 64.06 285.82 157 212.31 203.47 138.81 157 138.81 64.06 177.18 39.8"/><path class="cls-3" d="M187.91,25" transform="translate(12.51 0.13)"/><path class="cls-3" d="M164.67,39.68" transform="translate(12.51 0.13)"/><line class="cls-4" x1="26.13" y1="17.59" x2="26.13" y2="210.9"/><line class="cls-4" x1="398.7" y1="17.93" x2="398.7" y2="210.92"/><line class="cls-4" x1="26.13" y1="210.9" x2="398.7" y2="210.9"/><line class="cls-4" x1="26.13" y1="17.93" x2="138.81" y2="17.93"/><line class="cls-4" x1="398.7" y1="17.93" x2="285.82" y2="17.93"/></svg>